<?xml version="1.0" encoding="UTF-8" standalone="no"?><!DOCTYPE svg PUBLIC "-//W3C//DTD SVG 1.1//EN" "http://www.w3.org/Graphics/SVG/1.1/DTD/svg11.dtd"><svg width="100%" height="100%" viewBox="0 0 63 72" version="1.1" xmlns="http://www.w3.org/2000/svg" xmlnsXlink="http://www.w3.org/1999/xlink" xmlSpace="preserve" xmlnsserif="http://www.serif.com/" style="fill-rule:evenodd;clip-rule:evenodd;stroke-linejoin:round;stroke-miterlimit:2;"><path id="Procedures-Normal" serifid="Procedures Normal" d="M12.479,62.5l-6.229,0c-1.658,0 -3.247,-0.658 -4.419,-1.831c-1.173,-1.172 -1.831,-2.761 -1.831,-4.419l0,-50c-0,-1.658 0.658,-3.247 1.831,-4.419c1.172,-1.173 2.761,-1.831 4.419,-1.831l43.75,0c1.658,-0 3.247,0.658 4.419,1.831c1.173,1.172 1.831,2.761 1.831,4.419l-0,9.354c1.635,0.017 3.199,0.673 4.357,1.83c1.172,1.173 1.83,2.762 1.83,4.42l0,43.75c0,1.657 -0.658,3.247 -1.83,4.419c-1.173,1.172 -2.762,1.831 -4.42,1.831l-37.458,-0c-1.658,-0 -3.248,-0.659 -4.42,-1.831c-1.172,-1.172 -1.83,-2.762 -1.83,-4.419l-0,-3.104Zm43.708,-43.771l-37.458,-0c-0.829,-0 -1.624,0.329 -2.21,0.915c-0.586,0.586 -0.915,1.381 -0.915,2.21l-0,43.75c-0,0.829 0.329,1.623 0.915,2.21c0.586,0.586 1.381,0.915 2.21,0.915l37.458,-0c0.829,-0 1.624,-0.329 2.21,-0.915c0.586,-0.587 0.915,-1.381 0.915,-2.21l0,-43.75c0,-0.829 -0.329,-1.624 -0.915,-2.21c-0.586,-0.586 -1.381,-0.915 -2.21,-0.915Zm-3.104,27.693l-0,6.25l-31.25,0l-0,-6.25l31.25,0Zm-0,11.185l-0,6.25l-31.25,0l-0,-6.25l31.25,0Zm-0,-33.554l-0,6.25l-31.25,-0l-0,-6.25l31.25,-0Zm-0,11.185l-0,6.25l-31.25,-0l-0,-6.25l31.25,-0Zm-3.083,-29.603l-43.75,-0l0,3.789l43.75,0l0,-3.789Z" style="fill:#004078;"/></svg>